<?xml version="1.0" encoding="UTF-8"?>
<svg width="89px" height="27px" viewBox="0 0 89 27" version="1.1" xmlns="http://www.w3.org/2000/svg" xmlns:xlink="http://www.w3.org/1999/xlink">
    <!-- Generator: Sketch 46.2 (44496) - http://www.bohemiancoding.com/sketch -->
    <title>Group 2</title>
    <desc>Created with Sketch.</desc>
    <defs></defs>
    <g id="Page-1" stroke="none" stroke-width="1" fill="none" fill-rule="evenodd">
        <g id="Group-2" transform="translate(0.000000, -1.000000)">
            <g id="small-car-9e223644dc556c9c2252b005917ada342920abef970b0e022466c576ba5c39f9" transform="translate(57.000000, 14.000000) scale(-1, 1) translate(-57.000000, -14.000000) translate(24.000000, 0.000000)" fill-rule="nonzero" fill="#FFFFFF">
                <path d="M52.84,1 L52.48,1.5 C52.48,1.5 32.71,1.36 27.48,1.86 C27.48,1.86 21.48,5.86 19.48,8.61 C19.48,8.61 19.2,8.33 18.63,8.61 L18.84,9.04 C18.3700401,8.98018822 17.8985322,9.13858541 17.56,9.47 C17.56,9.47 16.35,8.9 16.21,9.54 C16.21,9.54 7.89,10.04 5.9,11.39 C5.9,11.39 3.2,12.6 2.7,14.16 L2.34,16.43 L1.06,17.07 L0.99,19.07 C0.99,19.07 1.7,19.64 1.77,21.91 C1.77,21.91 1.27,22.83 1.49,23.33 C1.49,23.33 1.63,23.76 2.98,23.69 L5.54,23.9 C5.54,23.9 4.62,15.3 12.29,15.01 C12.29,15.01 18.76,15.08 18.9,23.76 L50.26,23.33 C50.26,23.33 50.05,15.01 56.87,14.87 C56.87,14.87 63.06,14.8 63.06,21.98 C63.6171171,22.3046619 64.3300869,22.1481563 64.7,21.62 L65.27,20.27 L65.27,16.71 C65.3034876,16.3256399 65.1420047,15.9500984 64.84,15.71 L64.24,15.07 L63.42,10.73 C63.42,10.73 62.71,9.17 61.64,8.81 L60.72,7.81 L60.51,7.1 C60.51,7.1 57.81,3.26 57.1,3.05 C57.1,3.05 57.6,2.69 57.38,2.41 L58.87,1.7 C58.87,1.7 56.31,1.2 55.6,1.91 C55.0422043,1.75328422 54.4686479,1.65936855 53.89,1.63 C53.7641032,1.34421007 53.5357899,1.11589676 53.25,0.99 L52.84,1 Z M57.8,8.39 L43.29,8.82 L43.2,3.2 L54.65,3.13 L57.8,8.39 Z M62.49,13.79 C62.1672943,12.4630689 61.7631965,11.1572652 61.28,9.88 C61.499341,9.72073691 61.7787806,9.66881487 62.0406913,9.73865771 C62.3026019,9.80850054 62.5190842,9.99266845 62.63,10.24 C63.0844734,11.4726851 63.3475215,12.7676909 63.41,14.08 C63.41,14.08 63.08,14.6 62.51,13.8 L62.49,13.79 Z M24.09,9.74 L29.57,3.2 L42.3,3.06 L42.23,8.96 L28.72,9.03 C28.8719111,8.42591249 28.6123966,7.79334592 28.08,7.47 C25.66,7.33 25.95,8.89 25.95,8.89 L25.38,9.74 L24.09,9.74 Z M3.4,15.36 C3.64476494,14.4595048 4.13664634,13.6454757 4.82,13.01 C5.53267108,12.2169416 6.52625392,11.7327045 7.59,11.66 C8.59,12.23 6.74,14.15 6.74,14.15 C6.00794518,14.9835877 5.04325578,15.579118 3.97,15.86 C3.2,16.21 3.42,15.36 3.42,15.36 L3.4,15.36 Z" id="Shape"></path>
                <path d="M51.04,21.27 C51.04,24.5340029 53.6859971,27.18 56.95,27.18 C60.2140029,27.18 62.86,24.5340029 62.86,21.27 C62.86,18.0059971 60.2140029,15.36 56.95,15.36 C53.6859971,15.36 51.04,18.0059971 51.04,21.27 Z M52.75,21.27 C52.75,18.9559269 54.6259269,17.08 56.94,17.08 C59.2540731,17.08 61.13,18.9559269 61.13,21.27 C61.13,23.5840731 59.2540731,25.46 56.94,25.46 C54.6259269,25.46 52.75,23.5840731 52.75,21.27 Z" id="Shape"></path>
                <path d="M60.34,19.67 C60.1786131,19.2285704 59.87639,18.8525486 59.48,18.6 L58.2,20.1 C58.2,20.1 58.03,20.36 58.46,20.4 L60.34,19.67 Z" id="Shape"></path>
                <path d="M58.76,18.09 C58.4129627,17.8221787 57.9966161,17.6591096 57.56,17.62 L57.35,19.67 C57.35,19.67 57.35,19.84 57.56,19.8" id="Shape"></path>
                <path d="M56.58,19.67 L56.49,17.53 C56.0557972,17.5091089 55.6289584,17.6478315 55.29,17.92 L56.29,19.72 C56.29,19.72 56.49,19.84 56.58,19.67 Z" id="Shape"></path>
                <path d="M55.72,20.27 L54.4,18.6 C54.08415,18.8438322 53.8220168,19.1502216 53.63,19.5 L55.51,20.5 C55.51,20.5 55.85,20.66 55.72,20.27 Z" id="Shape"></path>
                <path d="M55.38,21.17 L53.2,20.6 C53.2,20.6 52.9,21.46 53.33,21.84 L55.33,21.5 C55.33,21.5 55.64,21.26 55.38,21.17 Z" id="Shape"></path>
                <path d="M55.59,22.07 L53.59,22.67 C53.6552052,23.18683 53.9740816,23.6370084 54.44,23.87 L55.68,22.37 C55.68,22.37 55.94,22.03 55.59,22.07 Z" id="Shape"></path>
                <path d="M56.28,22.71 L55,24.34 C55.3682559,24.6949861 55.8585254,24.8953882 56.37,24.9 L56.54,22.85 C56.54,22.85 56.58,22.6 56.28,22.71 Z" id="Shape"></path>
                <path d="M57.2,22.88 L57.2,24.93 C57.67852,25.0253624 58.1751251,24.9166168 58.57,24.63 L57.63,22.83 C57.63,22.83 57.52,22.71 57.2,22.88 Z" id="Shape"></path>
                <path d="M58.03,22.37 L59.36,24 C59.7839009,23.8459357 60.0724322,23.4506874 60.09,23 L58.29,22.06 C58.1705899,22.1307452 58.0788757,22.2400968 58.03,22.37 Z" id="Shape"></path>
                <path d="M58.46,21.47 L60.64,22.07 C60.8569961,21.6532197 60.8569961,21.1567803 60.64,20.74 L58.54,21.04 C58.54,21.04 58.2,21.34 58.46,21.47 Z" id="Shape"></path>
                <path d="M6.1,21.27 C6.1,24.5340029 8.74599713,27.18 12.01,27.18 C15.2740029,27.18 17.92,24.5340029 17.92,21.27 C17.92,18.0059971 15.2740029,15.36 12.01,15.36 C8.74599713,15.36 6.1,18.0059971 6.1,21.27 Z M7.81,21.27 C7.81,18.9559269 9.6859269,17.08 12,17.08 C14.3140731,17.08 16.19,18.9559269 16.19,21.27 C16.19,23.5840731 14.3140731,25.46 12,25.46 C9.6898331,25.4544865 7.81999342,23.5801735 7.82,21.27 L7.81,21.27 Z" id="Shape"></path>
                <path d="M15.34,19.7 C15.1786131,19.2585704 14.87639,18.8825486 14.48,18.63 L13.24,20.13 C13.24,20.13 13.07,20.39 13.5,20.43 L15.34,19.7 Z" id="Shape"></path>
                <path d="M12.56,19.83 L13.76,18.12 C13.4129627,17.8521787 12.9966161,17.6891096 12.56,17.65 L12.35,19.7 C12.35,19.7 12.34,19.87 12.56,19.83 Z" id="Shape"></path>
                <path d="M11.57,19.7 L11.48,17.56 C11.0457972,17.5391089 10.6189584,17.6778315 10.28,17.95 L11.28,19.75 C11.28,19.75 11.49,19.87 11.57,19.7 Z" id="Shape"></path>
                <path d="M10.72,20.3 L9.39,18.6 C9.07454502,18.8442473 8.81248805,19.1505477 8.62,19.5 L10.5,20.5 C10.5,20.5 10.85,20.68 10.72,20.3 Z" id="Shape"></path>
                <path d="M10.38,21.2 L8.2,20.6 C8.0690959,21.0134354 8.11619655,21.4627032 8.33,21.84 L10.33,21.5 C10.33,21.5 10.63,21.28 10.38,21.2 Z" id="Shape"></path>
                <path d="M10.59,22.1 L8.59,22.7 C8.69189478,23.2045682 9.00493594,23.6413698 9.45,23.9 L10.69,22.4 C10.69,22.4 10.93,22.05 10.59,22.1 Z" id="Shape"></path>
                <path d="M11.27,22.74 L9.99,24.37 C10.3515514,24.7351446 10.8461945,24.9373344 11.36,24.93 L11.53,22.88 C11.53,22.88 11.57,22.6 11.27,22.74 Z" id="Shape"></path>
                <path d="M12.2,22.91 L12.2,24.96 C12.6735879,24.965969 13.1422468,24.863343 13.57,24.66 L12.63,22.86 C12.63,22.86 12.52,22.74 12.2,22.91 Z" id="Shape"></path>
                <path d="M13.03,22.4 L14.36,24.03 C14.68,23.82 14.84,23.82 15.09,23.03 L13.29,22.09 C13.1705899,22.1607452 13.0788757,22.2700968 13.03,22.4 Z" id="Shape"></path>
                <path d="M13.46,21.5 L15.64,22.1 C15.8569961,21.6832197 15.8569961,21.1867803 15.64,20.77 L13.54,21.07 C13.54,21.07 13.2,21.37 13.46,21.5 Z" id="Shape"></path>
            </g>
            <g id="Group" transform="translate(0.000000, 3.000000)" stroke="#FFFFFF" stroke-linecap="square">
                <path d="M28.5833333,0.5 L19.4166667,0.5" id="Line"></path>
                <path d="M23.5769231,5.5 L13.4230769,5.5" id="Line-2"></path>
                <path d="M21.5769231,15.5 L6.5,15.5" id="Line-2"></path>
                <path d="M22.5,10.5 L0.5,10.5" id="Line-3"></path>
            </g>
        </g>
    </g>
</svg>