<svg class="logo" xmlns="http://www.w3.org/2000/svg" width="686" height="150" viewBox="0 0 686 150">
  <path class="a animated" fill="#0076BB" d="M139.25 10.81c.06-.356.256-.743.58-1.16.328-.412.728-.8 1.204-1.157.472-.355.978-.635 1.513-.844.533-.21 1.038-.32 1.51-.32h22.782c1 0 1.86.31 2.58.93.71.62 1.24 1.17 1.6 1.65l2.22 5.07 46.72 120.49c.47 1.19.38 2.15-.27 2.89-.66.74-1.78 1.11-3.38 1.11h-25.54c-1.37 0-2.42-.25-3.16-.76-.74-.51-1.32-1.35-1.74-2.54-1.19-3.02-2.35-6.04-3.47-9.03-1.13-3-2.26-6.01-3.39-9.04h-47.25c-1.13 3.02-2.27 6.04-3.42 9.03-1.16 3-2.3 6.01-3.43 9.03-.78 2.2-2.29 3.29-4.54 3.29H94.13c-1.125 0-2.06-.3-2.8-.89-.745-.6-.875-1.48-.4-2.67l48.32-125.1zm16.198 38.088c-1.124 3.022-2.27 6.288-3.425 9.788-1.155 3.5-2.3 7.03-3.426 10.59-1.127 3.56-2.272 7.076-3.425 10.544-1.158 3.47-2.298 6.72-3.427 9.747h27.32l-13.617-40.67z"></path>
  <path class="v animated" fill="#00A7E0" d="M56.358 137.167c-.65-1.065-1.23-2.163-1.736-3.293-.505-1.124-.994-2.28-1.466-3.47L7.504 10.89c0-.295-.047-.56-.133-.8-.09-.237-.13-.473-.13-.71 0-1.66 1.1-2.495 3.3-2.495h28.65c2.25 0 3.8 1.132 4.63 3.386l27.14 80.98c2.43-6.76 4.76-13.51 6.99-20.24 2.22-6.73 4.42-13.48 6.59-20.24 2.16-6.76 4.36-13.51 6.58-20.25 2.23-6.73 4.55-13.48 6.99-20.24.83-2.25 2.46-3.38 4.9-3.38h28.03c1.36 0 2.33.26 2.89.76.57.51.85 1.18.85 2 0 .48-.03.81-.09.99v.27l-45.93 119.5c-.3.84-.65 1.75-1.07 2.76-.41 1.01-.88 1.95-1.42 2.8-.53.87-1.15 1.6-1.87 2.19-.71.59-1.51.89-2.4.89H60.01c-1.84 0-3.058-.62-3.65-1.87"></path>
  <g class="dems animated">
  	<path fill="#0A3355" d="M303.308 55.662c-1.634-5.698-3.918-11.006-6.852-15.93-2.936-4.923-6.48-9.375-10.635-13.352-4.15-3.97-8.73-7.384-13.75-10.234-5.01-2.847-10.41-5.04-16.19-6.582-5.78-1.542-11.79-2.314-18.02-2.314h-43.88c-1.36 0-2.38.385-3.07 1.158-.68.77-1.02 1.775-1.02 3.025V47.92l33.45 86.26c.75 1.87.69 3.734-.09 5.306h14.61c6.23 0 12.26-.753 18.07-2.267 5.82-1.52 11.23-3.67 16.25-6.45 5.01-2.79 9.58-6.18 13.71-10.15 4.13-3.98 7.67-8.41 10.63-13.31 2.97-4.9 5.25-10.18 6.86-15.84 1.6-5.66 2.4-11.64 2.4-17.93 0-6.24-.81-12.19-2.44-17.89m-34.27 30.79c-1.63 3.97-3.88 7.42-6.76 10.36-2.88 2.94-6.24 5.31-10.1 7.12-3.86 1.81-8.01 2.89-12.45 3.24-1.3.12-2.61.22-3.91.32-1.3.08-2.64.13-4 .13h-7.47V39.2h11.75c4.86 0 9.45.844 13.75 2.535 4.3 1.692 8.05 4.066 11.26 7.116 3.2 3.05 5.74 6.68 7.61 10.86s2.81 8.77 2.81 13.75c0 4.69-.82 9.02-2.45 12.99"></path>
  	<path fill="#0A3355" d="M313.908 12.593c0-1.25.34-2.24 1.024-2.983.676-.737 1.64-1.114 2.88-1.114h88.29c1.304 0 2.317.39 3.028 1.158.71.765 1.062 1.803 1.062 3.104v22.007c0 1.005-.35 1.967-1.062 2.884s-1.75 1.37-3.118 1.37h-57.665v22.07h44.497c1.124 0 2.06.26 2.8.8.744.53 1.11 1.42 1.11 2.67v19.22c0 .83-.32 1.63-.977 2.4-.65.77-1.598 1.15-2.845 1.15h-44.585v22.78h59.802c2.67 0 4 1.36 4 4.07v22.36c0 .59-.24 1.12-.71 1.59-.24 1.66-1.46 2.48-3.65 2.48h-89.98c-1.19 0-2.13-.31-2.84-.94-.71-.62-1.07-1.58-1.07-2.89V12.59zm119.452-.18c.12-1.067.536-1.984 1.25-2.76.71-.767 1.718-1.157 3.024-1.157h30.794c2.192 0 3.615 1.13 4.268 3.386l24.207 80.803 24.383-80.803c.828-2.256 2.342-3.386 4.537-3.386h30.434c1.072 0 2.033.375 2.894 1.117.86.74 1.35 1.676 1.48 2.8 2.07 20.885 4.2 41.605 6.36 62.163 2.17 20.555 4.29 41.277 6.36 62.16v.44c0 2.316-1.3 3.472-3.91 3.472h-25.18c-2.73 0-4.15-1.306-4.27-3.914l-7.74-68.79-20.02 69.23c-.11.602-.55 1.31-1.29 2.142s-1.46 1.247-2.18 1.247h-23.4c-.71 0-1.47-.403-2.27-1.205s-1.23-1.523-1.29-2.183l-20.03-69.057-7.74 68.616c-.12 2.608-1.57 3.914-4.36 3.914h-25.19c-2.55 0-3.82-1.306-3.82-3.914l12.72-124.32zm168.525 85.525c1.01.825 2.303 1.942 3.872 3.333 1.575 1.4 3.368 2.78 5.385 4.14 3.027 2.02 6.02 3.59 8.987 4.73 2.96 1.13 6.08 1.69 9.34 1.69 3.02 0 5.56-.34 7.6-1.02 2.05-.68 3.66-1.58 4.85-2.71 1.18-1.13 2.03-2.43 2.54-3.91.49-1.48.75-3.05.75-4.71 0-1.83-.7-3.48-2.09-4.93-1.4-1.45-3.1-2.74-5.12-3.86s-4.12-2.09-6.32-2.89c-2.2-.8-4.1-1.47-5.7-2-7.12-2.49-13.35-5.17-18.69-8.04-5.34-2.88-9.79-6.08-13.36-9.61-3.56-3.52-6.23-7.41-8.01-11.64-1.78-4.24-2.67-8.96-2.67-14.18 0-5.51 1.11-10.52 3.33-15.03 2.22-4.5 5.4-8.36 9.52-11.56 4.12-3.2 9.09-5.67 14.9-7.42 5.81-1.75 12.31-2.62 19.49-2.62 5.4 0 10.58.61 15.53 1.83 4.95 1.22 9.83 3.16 14.64 5.83 2.01 1.19 3.93 2.42 5.74 3.69 1.81 1.28 3.39 2.5 4.76 3.69 1.36 1.19 2.44 2.31 3.25 3.38.8 1.07 1.2 1.99 1.2 2.76 0 .77-.2 1.48-.58 2.13-.38.66-.96 1.4-1.74 2.23l-13.6 14.5c-1.01 1.01-2.02 1.51-3.03 1.51-.83 0-1.59-.24-2.27-.72-.68-.47-1.44-1.07-2.27-1.77l-.8-.71c-1.19-1-2.51-2.04-3.96-3.11-1.46-1.06-3.01-2.03-4.67-2.88-1.66-.86-3.41-1.58-5.25-2.14-1.84-.56-3.71-.84-5.61-.84-1.96 0-3.8.16-5.52.49-1.73.32-3.24.84-4.55 1.56-1.31.72-2.34 1.65-3.11 2.81-.78 1.15-1.16 2.57-1.16 4.23 0 1.66.41 3.1 1.24 4.31.83 1.22 2.08 2.35 3.74 3.39 1.66 1.03 3.72 2.01 6.19 2.93 2.46.92 5.32 1.92 8.59 2.98 6.28 2.08 12.08 4.26 17.39 6.54 5.31 2.29 9.89 4.99 13.75 8.1 3.86 3.12 6.86 6.84 9.03 11.17 2.16 4.33 3.25 9.58 3.25 15.75 0 6.53-1.34 12.45-4.01 17.75-2.67 5.31-6.33 9.84-10.99 13.57-4.66 3.74-10.13 6.63-16.42 8.68-6.29 2.05-13.06 3.07-20.29 3.07-6.82 0-13.53-1.22-20.11-3.66-6.59-2.44-12.73-5.71-18.43-9.82-2.37-1.73-4.37-3.42-6.01-5.09-1.63-1.66-2.92-3-3.87-4.01l-.27-.27c-.06-.12-.12-.19-.17-.22-.06-.03-.12-.08-.18-.14-.06-.11-.12-.19-.17-.22-.06-.02-.12-.07-.18-.13-1.37-1.49-2.05-2.68-2.05-3.58 0-1.01.68-2.14 2.05-3.38l15.4-14.69c1.24-.89 2.25-1.33 3.02-1.33.53 0 1.1.17 1.69.53.59.36 1.3.89 2.13 1.61"></path>
  </g>
  <path class="virginia" fill="#FFF" d="M181.102 90.084l-.72-2.884-.357-.18-.272.03-.69.36.06.212.3.026.15.396-.12.18.18.268-.39-.09-.03-.33.12-.09-.27-.237-.148.114.09.18-.124.3-.26.09.18-.39-.18-.13.3-.36v-.12l-.99-.27-.03.08.15.12-.21-.03-.06.12.33.08.24.42-.24.03-.27-.42-.42.05-.15-.09.39-.09.06-.36-.72-.21-.66-.45-.36-.03.06.12.43.05-.06.15-.21.06-.24-.18-.12.05-.21-.21-.03.95.12.09.3-.09.09.15h.21l-.06.17.24-.06-.12.27-.27-.3-.23-.03-.15.54.27.15v.18l.96.27-.69.03-.21-.18-.21.06-.09-.21-.45.15-.12.24-.24.03-.15.06-.09.27-.09-.06.24-.51.27.09.06-.27h.27l.06-.12-.17-.3.12-.21-.09-.54-.36-.06-.18.51-.87-.12-.12.36-.42.06-.09.27-.21-.03v.21l-.15.06.06.15-.51.24-.06.69-.12-.03.03-.81.39-.21.31-.63.36-.15v-.45l-.27.21-.18-.07.24-.24-.18-.45.21.03.09.24.09-.07-.09-.39-.45-.21-.54-.54-.87.19.12-.24h.39l.03-.31-.24-.17-.57-.04-.39-.21-.09-.36.18-.72-.24-.63.12-.66-.3-.36-.45.93h-.36l-.63-.72-.24-.06v-.33l-.99.03-.39.15-.68-.54-.46-.18-.5.39.12-.36.3-.15-.27-.99-.18-.04-.51.69-.21.12v-.12l-.3-.15-.11-.66-.15.17-.36.09-.24-.09-.57.27-.18-.06-.06-.27-.3-.15-.09.24-.3.18-.27-.48-.24.12-.06-.15.39-.57.09.57.81-.15.3.25.57.03v-.16l.15.15.87-.31-.15.15.03.54.03.15h.15l.84-.67.24.24.12.45.33.48.6.3.09-.18.17-.04.27-.24-.06-.18.09-.57-.12-.21.12-.24.18.27-.09.12.25.18-.24.15.06.78.96.07.66.87.26-.24-.21-.21.66-.03.06-.21.84.18.54.87-.33.75.39.27.57.63.15-.06-.27-.45.03-.21.37.53.15.09.15-.12-.09.4.1.15.86.6.24.39-.03.21.42.5.42-.54.54-.24.12-.21.33.03.24-.3.06.15-.27.39.18-.03.48-1.5-.12-.33-.42.18.06.3-.21-.36-.09.03-.17.48-.33.39.03-.42.27-.3-.15-.12-.03-.18-.24.06-.06-.15-.12.09.03-.24.27-.06.21.12.06.18.13-.12.66-.15-.21-.09.09-.12-.24-.18-.06.18-.15-.09-.22-.3v-.3l-.18-.06-.21.12.24.09-.18.06-.06.06.09.09-.24.12-.06-.03.1-.31-.3-.09-.03-.12-.15.42-.09-.09-.21.27-.24-.09.02-.12.24.03-.03-.39.18.13.13-.27-.18-.15h-.39l.45-.15.31.27.06-.24-.15-.36-.03.21-.51-.12.03-.11.33-.03-.09-.12-.72.15-.833-.51-.33-.39-.51-.12.03-.15-.36-.3h-.24l.12-.12-.57-.788-.06-.3-.18-.06-.33-.57-.69-.75-.36-.75-.54-.27.03-.42-.21-.48-.18.03-.3.45-.36-.06-.09-.15.24-.39.03-.42-.12.06v.39l-.12.15-.36-.03-.21-.27-.33.63-.45-.24-.04-.18.21-.24-.06-.27h-.18l.06.25-.183.18-.42-.15-.12-.33.09-.18h.18l-.09.3.3.09.03-.24.36-.06.15.51-.15.21.15.06.15-.3.48-.24.15.03.09.3h.15l-.06-.45.36-.09.184.4-.27.48.06.09.09.06.15-.27.36-.18.15.07.18.42.15-.24.12.45.545.48.32.66.42.39v.15l.27.21.16-.09.08.33.66.87.24.15.27.48.06-.15.09.15h.24l-.21.12.03.12.21.18.18-.27-.03.36.36.24.12.39.39-.27.09.06-.12.12.6-.09.12-.06-.03-.18.12.09h.45l-.24-.21.18.03.18-.15-.09-.15.06-.17-.27.02-.03-.12.12-.09-.18-.12-.11.15H174l-.18.18v.21l-.27-.21v-.15l.33-.03V80l-.48.09-.12-.42h.18l.15.24.21-.15.12.12.33.06.12-.06-.06-.21.15-.06-.27-.06-.33-.45-.09.18-.51-.06.03-.18.18.03.12-.3-.42-.18v-.27l.15.21.09-.06.3.15.15.24h.24l.36.22-.21-.72-.397-.07-.03-.12-.24.06.24-.27v-.45l.15.15.03.48h.33l-.03-.3.09-.02.24.3-.09.24.06.33.24.18.18-.06-.03.19.12.06.21-.24-.15-.3.06-.24-.3-.24.15-.21v.23l.21.15.18-.03-.12.186.21.3-.15.53.24.33.3-.15-.19.33.33.24.06-.07.12.24-.12.12.09.09.15-.96-.36-.3.21.09.09-.09.18.21.03-.06-.06-.27-.3-.15.3-.03.15.2.03-.12.03-1.23-.18-.33.03.38h-.18l.03-.26-.18-.09.03.354-.15-.24-.3.24-.18-.39.48.06.09-.24-.33-.18-.15.12-.51-.09.03-.09.24.03.06-.143-.21-.15h-.3l-.06-.27-.24-.09-.3-.03.06.15-.36.2-.57-.12-.36-.33-.3.03v-.12l-.24-.12.15-.21.24.33.36-.02.36.36.21-.12.15.15.24-.42.09.12.33-.15.12.12.36-.12.12.3.09-.3-.12-.12.36.12.18-.36-.47-.03-.21-.15h-.6l-.62-.24.03-.18-.12-.03.09-.21-.12-.09-.21.09-1.14-.03-.57-.54-.39-.24.3-.035-.63-.3.06-.18.57.21-.2-.48-.18.03.09-.18-.09-.25-.3-.08v-.33l-.78-.21-.03-.42-.54-.12-.23-.21-.72-1.17-.15-.6-.39-.12v-.24l-.32-.05-.63-.604.12-.36h-.5l-.24-.24.21-.3-.3-1.2-.81-.33-.09-.33-.06.21-.45.15-.363-.3v-.81l-.173.27-.188.03-.06-.36h-.15l-.21.36-.15-.03-.18-.48-.15-.09-.33.21-.4-.45-.03-.13.48.28.21-.07.3.09.15-.09.12.33.27-.26.24.3.15-.19.24.13.02.72.25.27.51-.24.18.33.72.27.34.533.24 1.11.27.03.09.18.15-.12.12.02-.09.54.28.33.15-.06.63.44.24.63.18.03.06-.24.24.03.15-.3v.24l-.39.36.24.63.6.27.12-.15-.06-.03.3-.18-.18.36.36.45.15-.39v.08l.24-.02-.12.36.06.12h.33l-.21.09.21.18h.18l.3-.18-.21.24.18.54.27.45.15.03.12.81.4.45.27-.12-.18-.18.07-.12.12.03.03-.24.15-.09-.18-.27.15-.06-.12-.28h-.18l-.21-.21-.03-.48.3.09-.03.36.21.21.12-.03.09.21.15-.27.24-.03.09-.24.24.06-.33.42-.3.12.06.24.12.06-.27.3v.12l.18.06-.03.15.15.06.31-.54v.24l.21.06.06.12-.39.15.09.09.33.21h.33l.33.36.15-.06-.09-.24.33-.03.03.18.19-.06.11-.36-.21.15-.36-.09.24-.09V74l-.42-.118.35-.1-.39-.236v-.09l.57.15-.09-.18-.42-.21.18-.39.06.36.24.03.03-.15.15.27.06-.24.06.12.06-.12-.18-.453-.09.09v-.11l-.27-.06.21-.15-.39-.055.12-.12.03-.51.15.42.36.267.03-.08-.33-.48.09-.09.15.12v-.27h.3l-.09-.15-.21-.03-.09-.03-.06.152-.09-.16-.27.034v-.12l-.24-.03.09-.15.56.15.04-.33h-.3l.12-.15-.15-.12.06-.15-.12-.09-.18.21-.27-.27-.39.09-.03-.12.2-.06v-.09l-.84-.21v-.18l.486.12.3-.06.48.42.12-.09.09.12.36-.03-.06.15.3.15.09.27.09-.42-.12-.18h.12l.17.21v.33l-.18.21.09.03.19-.09v-.27l.15.09.21-1.08-.09-.12-.06.27-.09-.27-.18.12-.06.24-.18.03.09-.27-.24.09v-.18l-.42-.39.39.06.03.21.36.12-.12-.21.3.15-.03-.18-1.26-.75-.15.18.03-.21-.33-.12.06.45-.18.15v-.3l-.22-.06.19-.21-.39-.15-.24-.24v.12l-.18.03.06-.33-.33.03.15.24-.3.21v.3l-.15.12-.06-.36.33-.33-.09-.24-.48.24.1-.18-.1-.05.42-.21.15.09.03-.18-.69-.36-.3.03.15.24-.15.09v.3l-.18-.33-.36.15.42-.36-.06-.09h-.2l.15-.21-.24-.18.12-.06.06-.24.21.42.03-.09h.21l-.243-.57-1.02-.6-.15.03.21-.18-.15-.51-.42-.03.09.63-.42-.57-.48-.24-.12.24.33.31-.43-.21.15.51-.3.36.03.15.38.3-.54-.21.03-.3-.27-.15.45-.06.03-.09-.18-.33h-.27l-.21-.39-.12-.03.06-.2-.96.09-.57-.18-.36-.33-.21.27.03-.39-.45-.15-.34.09-.39-.06.3-.18.18.12-.13-.69.15.33.06-.36-.15-.27-.42-.27-.45-.54-.36-.09-.21.15.09-.27.12-.08.42.09.12-.17.03-.84-.42-.42-.18.03-.45.54-.66.03-.45.42-.99.27-.364-.02-.2-.16-.67.06-.54-.18.39-.15.18.12.24-.03.06-.15.09.15.126-.09-.39-.57-.48-.35-.12-.39-.23-.21.39.22.48.57-.09-1.14.12-.51.34-.6-.33-.66.46.33.27-.39-.09-.3-.15-.13h.24l.12-.12-.15-.3.15-.06v-.39l.27-.18-.12-.33.57.09-.033.21-.24.12.21.39.44-.18.1-.27.42.09-.06-.27-.6-.54.18-.09-.04-.24.36.42.24-.15V55l.27.18.69-.15.15-.12v-2.2l.15-.3-.18-.392-.45-.48-.24-.09-.383-.48-.48-.6-.57-.03-.54-.18-.21-.237.03-.6-.72-.48-.45-.15-1.71-.21-.45-.69-.45-.21-.1-.36.12-.5.54-.36.27-.69-.48-.42-.63-.23-.39-.75-.48.09-.63-.15-.42-.3-.27.12-.36-.09-.39.54-1.1 2.92-7.17-6.03-.03.78-.12.27.18.42-.27.48.36.19-.66 1.05-.45.61.21.18v.18l-.42.69.42.61-.36.36-.27.45-.6.36-1.11 1.26.27.28-.69.96-.33-.3-.72 1-.51.42-.03-.45-.09-.05-.835.72-1.17 2.33-1.83-1.55-.12.45-.24.21-.05.33-.39.12v.3l-.48.99.03.57-.12.42-.48.12-.33.66-.15.6-.57 1.03-.09.54-.42.51-.09.24-.51.39v.21l-.54.12-2.19-.81-.84-1.71-1.44-.75-.15.06-.24.63.03.54v.21l-.21.03-.21.33V60l-.54.83v.45l-.15.12h-.33l-.623.78-.03.12.24.42V63l-.78.45-1.05 1.02V65l-.33.393v.27l.18.21-.33.42-.72 1.528-1.98 1.96-.39.21-.3.66-.6.63.06.45-.21.06-.31.36-.12.27.12.27-.45.51-.49.21 1.39 1.05-.57.6-.93.51.18.36-.3.18.36.15.18-.21.18.12-.18.33-.27.24-.66.24-.15.24-1.5.85-.27-.3-.12-.66-.54.06-2.37 1.39-.96.39-.15-.36-.24-.09-.51-.54-.31-.09-.36.81.42.69-.87.63-.69.3h-.27l-.15-.18-1.69.36-.78.28-.99.51-1.83-1.91-.15.27-.33.15-.39.72-.34.04-.6.36-.15-.11-.21.39-.75.45-1.65.04-.63-.66-.27-.02-.24-.63-.54-.21-.43.09-.33-.18-.18-.59-.21-.21-.24-.06-.39-.52-.12-.36.18-.51-.18-.3.03-.24-.68-.36-.12-.27.09-.24.54-.12v-.15l.34-.24-.06-.09-.15.06-.03-.3-.3-.12-5.19 4.32-.3.12-.06.18-2.28.72-.78.39-1.18.78-1.26.61-.06 1.32-.27.06-.09.27-.25.03-.3.28-.6.06-.21.28-.42.18-.03.27.15.21-.33 1.01-.505.32-1.2.27-.24.18-.33-.15-.54.03-.1.18-.33.18-.06.4-.45.45v.41l-.15.3-.84.04-2.04.54-1.26.54-1.56-.02-.6.36-1.14.36-.39.34 5.73.36.3.12 18.9.87.21-.39 3.96.24-.45.39 4.68.45 15.38.96 11.01.27 15.92.09 21.36-.18.03-.12 12.63-.21-.15-.54-.33-.33.09-.09.72.63v.3h.42l-.12-.48.15-.17v-.57l-.12-.37.24-.5.03-.9.24-.12.48.96.18.93.306.36.03.09-.12.03.09.26-.15-.06v.33l.18.03-.09.15h.33l-.15-.98m5.377-23.47l-.22.36-.35-.06-.03-.09.35-.75h.3l-.18.18-.15.48.39-.3.09-.33-.09-.39.36-.12-.04-.17-.15-.12.06-.57.4.06-.06-.15.18-.21.266-.09-.09-.093-3.45.49-.15.21.06.12-.24.09.16.33-.06.24-.09.09-.45-.11-.3.24-.24-.124-.36.42.02.12-.26.09.21.12.33-.06v-.24l.24.18.24-.15.24.06-.42.24.12.06.24-.06.27.24-.3-.03-.12.33.06.12.45-.12-.28.24.21.27-.3-.03-.09.18-.18-.483-.18.3.18.12H184l.03.24-.09.03-.12-.12v.3l.33-.03v.18h-.09l.054.21-.33-.21.06.36-.3-.12-.07.272-.11-.48-.18.18-.12-.15.18-.12-.12-.09-.33.06-.27.27.03.24.09-.18.3.03.33.24-.09.21.21.3-.33-.118-.085-.18-.21.3-.18-.12-.24.51.12-.18h.36l.57.39-.24.15v-.15l-.33-.21-.15.27-.09-.27-.09.18-.27-.03.24.27-.33-.03-.03.42h.33v.126l.27.026.18-.15-.09.3-.21-.06-.03.24-.18-.03-.15-.24h-.45v.3l-.27-.09-.03.18.2.24-.09.06.06.21.18-.18.54-.12-.48.21.06.15h-.22l.12.27-.42-.15-.12-.39-.33.45.09.21.24-.09v.21l.27.15-.21.09-.39-.18-.15.45.24-.15 1.08.24-1.08.09-.09-.12.03.3-.12-.12-.3.66-.06.6.45-.27.51-.66-.06.51-.24.18.06.09.09-.09.24.09-.69.12.39.24-.06.15-.21-.12-.15.06-.15-.12-.33.3-.15.295.03.45.03-.15.57-.47.09.05-.21.27.18.03v.12h-.33l-.15.21.3.33-.18-.09-.36.12.27.39-.24-.04-.33.45-.15.63.06.06.26-.42.06-.24.09.03.15.087-.15.12.21.09-.55.51.33.15-.33.03-.18.39.24.36.15.03.09-.36.02.21.18.12-.18.18-.24.03-.03.45.45.638.18.864.23.06.33-.39-.12-.79.09-.51.15.114.03-.09-.18-.75.42-2.07.12.1.27-.3v-.27l.18-.03.27-.42.18-.03-.03.21.27.09.24-.12-.45-.33.09-.42-.15-.06.21-.39.51-.42.36.06.03.27.15-.21.18.06.24-.15v-.12l-.24.09-.24-.15.03-.11-.304.03.36-.87.27-.12.3.36h.24l-.09-.39.18-.06.24.12.03-.22.34.04-.09-.367-.18.09-.27-.15-.18.06.11.06-.09.21.22.03h-.55l-.06-.27.45-.43-.09-.12.36-.69.28-.03.09-.21.24.028.18-.18-.39-.37.24-.57.266-.25.27-.74.09.06v.21l.18-.09.06-.8.3-.276v-.39l.21-.02-.03.21.26-.37-.17.27.06.27.81-.99v-.12l-.21-.06"></path>
</svg>